<?xml version="1.0" encoding="UTF-8" standalone="no"?>
<!-- Created with Inkscape (http://www.inkscape.org/) -->

<svg
   xmlns:dc="http://purl.org/dc/elements/1.1/"
   xmlns:cc="http://creativecommons.org/ns#"
   xmlns:rdf="http://www.w3.org/1999/02/22-rdf-syntax-ns#"
   xmlns:svg="http://www.w3.org/2000/svg"
   xmlns="http://www.w3.org/2000/svg"
   xmlns:sodipodi="http://sodipodi.sourceforge.net/DTD/sodipodi-0.dtd"
   xmlns:inkscape="http://www.inkscape.org/namespaces/inkscape"
   width="64px"
   height="64px"
   viewBox="0 0 64 64"
   version="1.1"
   id="SVGRoot"
   inkscape:version="0.92.4 (5da689c313, 2019-01-14)"
   sodipodi:docname="alt-logo-silhouette.svg">
  <defs
     id="defs815" />
  <sodipodi:namedview
     id="base"
     pagecolor="#ffffff"
     bordercolor="#666666"
     borderopacity="1.0"
     inkscape:pageopacity="0.0"
     inkscape:pageshadow="2"
     inkscape:zoom="8"
     inkscape:cx="-0.10554907"
     inkscape:cy="19.769078"
     inkscape:document-units="px"
     inkscape:current-layer="layer1"
     showgrid="false"
     inkscape:window-width="1858"
     inkscape:window-height="1057"
     inkscape:window-x="1974"
     inkscape:window-y="-8"
     inkscape:window-maximized="1"
     inkscape:grid-bbox="true"
     inkscape:snap-global="false" />
  <metadata
     id="metadata818">
    <rdf:RDF>
      <cc:Work
         rdf:about="">
        <dc:format>image/svg+xml</dc:format>
        <dc:type
           rdf:resource="http://purl.org/dc/dcmitype/StillImage" />
        <dc:title></dc:title>
      </cc:Work>
    </rdf:RDF>
  </metadata>
  <g
     inkscape:label="Layer 1"
     inkscape:groupmode="layer"
     id="layer1">
    <g
       id="g844">
      <g
         id="g827">
        <path
           style="opacity:1;vector-effect:none;fill:#000000;fill-opacity:1;stroke:none;stroke-width:0.1;stroke-linecap:butt;stroke-linejoin:miter;stroke-miterlimit:4;stroke-dasharray:none;stroke-dashoffset:0;stroke-opacity:1"
           d="m 46.098348,48.986184 0.596621,0.243068 0.380093,1.869323 0.861786,1.524699 0.925152,0.74214 0.73213,0.274326 1.347922,0.23169 0.0221,0.298636 -1.458408,-0.0442 -0.905981,-0.265165 -0.994369,-0.83969 -1.149047,-1.90035 z"
           id="path5095-5"
           inkscape:connector-curvature="0"
           sodipodi:nodetypes="ccccccccccccc" />
        <path
           style="opacity:1;vector-effect:none;fill:#000000;fill-opacity:1;stroke:none;stroke-width:0.1;stroke-linecap:butt;stroke-linejoin:miter;stroke-miterlimit:4;stroke-dasharray:none;stroke-dashoffset:0;stroke-opacity:1"
           d="m 44.617271,45.482641 0.596621,0.243068 0.817593,6.275573 0.861786,1.524699 0.925152,0.74214 0.73213,0.274326 1.347922,0.04419 0.0221,0.486136 -1.458408,-0.0442 -0.905981,-0.265165 -0.994369,-0.83969 -1.149047,-1.90035 z"
           id="path5095"
           inkscape:connector-curvature="0"
           sodipodi:nodetypes="ccccccccccccc" />
      </g>
      <g
         id="g823">
        <path
           style="opacity:1;vector-effect:none;fill:#000000;fill-opacity:1;stroke:none;stroke-width:0.1;stroke-linecap:butt;stroke-linejoin:miter;stroke-miterlimit:4;stroke-dasharray:none;stroke-dashoffset:0;stroke-opacity:1"
           d="m 36.71875,50.578125 -1.929917,1.460382 -4.931219,1.768957 -2.964308,5.72189 -0.850173,1.052586 -0.775803,0.41649 -2.874024,-0.02589 -0.174556,0.746209 h 3.1875 l 1.030555,-0.565496 0.951464,-0.964183 2.953585,-5.622779 5.595646,-1.878791 2.49843,-2.137944 z"
           id="path5093"
           inkscape:connector-curvature="0"
           sodipodi:nodetypes="ccccccccccccccc" />
        <path
           style="opacity:1;vector-effect:none;fill:#000000;fill-opacity:1;stroke:none;stroke-width:0.1;stroke-linecap:butt;stroke-linejoin:miter;stroke-miterlimit:4;stroke-dasharray:none;stroke-dashoffset:0;stroke-opacity:1"
           d="m 36.551834,51.249981 -3.115689,-1.038563 -0.618718,0.729204 -0.928078,7.513009 -0.397748,0.751301 -0.661603,0.123676 -0.840999,-0.344647 -0.331456,0.552428 1.104854,0.464038 0.950175,-0.287262 0.768037,-1.221812 0.99973,-7.373955 2.320194,0.994369 2.167545,-1.12565 -0.333485,-0.06759 z"
           id="path5097"
           inkscape:connector-curvature="0"
           sodipodi:nodetypes="cccccccccccccccc" />
      </g>
      <g
         id="g832">
        <path
           style="opacity:1;vector-effect:none;fill:#000000;fill-opacity:1;stroke:none;stroke-width:0.1;stroke-linecap:butt;stroke-linejoin:miter;stroke-miterlimit:4;stroke-dasharray:none;stroke-dashoffset:0;stroke-opacity:1"
           d="M 11.21875,1.8906249 C 12.281199,1.5390885 14.548578,1.7321463 15.859375,2.4374999 29.401972,9.724915 39.937678,29.191901 43.125,41.578125 c 0.430278,-0.0055 1.606837,0.651011 2.75,2.046875 0.268809,0.32823 0.4141,1.072087 0.68611,1.39423 0.08063,0.09549 0.480777,-0.23774 0.579515,-0.15986 0.150246,0.118518 0.109777,0.555521 0.425456,0.661176 0.481033,0.160998 1.089635,0.06452 1.31377,0.233263 0.381565,0.287275 -0.118781,0.613396 0.370149,0.699311 0.417485,0.07336 0.872048,-0.17816 0.893492,0.485256 0.01098,0.339739 -0.335664,0.373283 -0.53884,0.588807 -0.374333,0.397084 -0.371777,1.112035 -0.698402,1.347812 -0.507044,0.366014 -0.839847,0.424607 -1.28125,0.734375 -0.395542,0.277584 -1.120253,0.272825 -1.5625,0.07813 -0.473605,-0.208551 -0.849167,-1.072539 -1.234375,-1.0625 -0.854666,0.02227 -1.971927,1.229414 -2.71875,1.84375 -0.473582,0.268138 -1.896481,0.709825 -2.736603,0.758086 -0.685393,0.03937 -0.716665,-0.272043 -1.154022,-0.195586 -0.841657,0.147136 -0.851158,0.800109 -1.671875,0.5625 -0.721526,-0.208892 -1.252019,-1.510412 -1.565181,-1.81204 -0.62331,0.298832 -1.21086,1.39327 -1.882582,1.379902 -1.597418,-0.03179 -6.697888,0.617236 -10.083487,1.010263 -3.283693,0.381197 -7.344518,1.190768 -9.765625,1.296875 -0.889877,0.039 -2.028251,-0.217452 -2.828125,-0.609375 C 9.149437,52.235905 8.304895,51.319163 7.375,50.25 6.457347,49.194913 5.666353,48.011212 5.0625,46.75 4.382488,45.329724 3.840625,43.809842 3.625,42.25 3.211101,39.255844 3.778347,34.618832 4.015625,33.1875 4.203369,32.054974 5.955176,28.679323 6.65625,27.515625 7.477406,26.152606 9.515453,24.536454 9.875,24.143631 9.655983,22.430555 10.306851,21.349839 10.234375,19.987381 10.065918,15.91919 9.296663,15.771812 8.6875,12.5625 8.210092,10.047329 8.248565,7.0727619 8.859375,4.9218749 9.215793,3.6667958 9.980087,2.300466 11.21875,1.8906249 Z"
           id="path5089"
           inkscape:connector-curvature="0"
           sodipodi:nodetypes="sscsssssssssssscssscsssssssssccsss" />
        <path
           style="opacity:1;vector-effect:none;fill:#000000;fill-opacity:1;stroke:none;stroke-width:0.1;stroke-linecap:butt;stroke-linejoin:miter;stroke-miterlimit:4;stroke-dasharray:none;stroke-dashoffset:0;stroke-opacity:1"
           d="m 48.296436,45.780951 c 0,0 0.559581,-0.333726 0.872835,-0.397747 0.739914,-0.151219 1.789369,-0.08079 2.530116,0.06629 2.791951,0.554376 7.51942,2.108323 9.965787,3.281417 0.351344,0.168478 0.629975,0.33451 0.839689,0.662912 0.186206,0.291589 0.359398,0.707278 0.309359,1.049612 -0.02359,0.161414 -0.08832,0.353675 -0.232019,0.430893 -0.07167,0.03851 -0.180777,0.03023 -0.243068,-0.0221 -0.108074,-0.0908 0.03034,-0.399116 -0.110486,-0.408796 -0.263416,-0.01811 -0.08376,0.592008 -0.309359,0.729204 -0.123082,0.07485 -0.239142,0.06719 -0.342505,-0.03315 -0.348143,-0.337959 -0.04226,-1.005666 -0.243068,-1.447359 -0.112175,-0.24673 -0.286681,-0.472117 -0.552427,-0.596621 -1.728203,-0.809673 -6.959062,-2.768692 -9.877398,-3.358757 -0.389221,-0.0787 -0.92314,-0.04385 -1.336874,0.02209 -0.340129,0.05421 -0.939126,0.430893 -0.939126,0.430893 z"
           id="path5091"
           inkscape:connector-curvature="0"
           sodipodi:nodetypes="csssssssssssssscc" />
        <path
           style="opacity:1;vector-effect:none;fill:#000000;fill-opacity:1;stroke:none;stroke-width:0.1;stroke-linecap:butt;stroke-linejoin:miter;stroke-miterlimit:4;stroke-dasharray:none;stroke-dashoffset:0;stroke-opacity:1"
           d="m 47.688766,49.217049 0.836318,1.862167 -0.504862,-2.259915 z"
           id="path5101"
           inkscape:connector-curvature="0"
           sodipodi:nodetypes="cccc" />
      </g>
    </g>
  </g>
</svg>
